<?xml version="1.0" encoding="UTF-8"?>
<!-- Generator: visioncortex VTracer 0.6.3 -->
<svg version="1.1" xmlns="http://www.w3.org/2000/svg" width="1280" height="789">
<path d="M0 0 C1 1 1 1 1.12 2.85 C1.08 9.7 0.72 16.49 0.25 23.31 C0.11 25.36 -0.02 27.41 -0.16 29.46 C-0.37 32.71 -0.59 35.97 -0.81 39.23 C-1.49 49.21 -2.15 59.2 -2.81 69.19 C-2.9 70.44 -2.98 71.7 -3.07 72.99 C-4.22 90.37 -5.29 107.75 -6.3 125.14 C-6.41 127.05 -6.52 128.95 -6.63 130.86 C-7.13 139.33 -7.62 147.8 -8.1 156.28 C-8.3 159.82 -8.5 163.35 -8.71 166.89 C-8.8 168.53 -8.89 170.18 -8.98 171.82 C-9.52 181.65 -10.42 191.27 -12 201 C-17.61 201.68 -23.23 202.35 -28.85 203.03 C-30.75 203.25 -32.65 203.48 -34.55 203.71 C-44.8 204.95 -55.06 206.15 -65.33 207.23 C-66.19 207.32 -67.05 207.41 -67.93 207.51 C-69.95 207.72 -71.98 207.86 -74 208 C-75 207 -75 207 -75.05 205.17 C-75.02 204.37 -74.98 203.57 -74.95 202.75 C-74.91 201.84 -74.87 200.93 -74.83 200 C-74.78 199.01 -74.73 198.01 -74.68 196.99 C-74.61 195.45 -74.61 195.45 -74.54 193.87 C-73.96 182.27 -73.03 170.7 -72.06 159.12 C-71.89 157.03 -71.72 154.94 -71.55 152.85 C-71.21 148.68 -70.87 144.51 -70.52 140.35 C-69.98 133.72 -69.44 127.09 -68.91 120.46 C-68.83 119.44 -68.75 118.42 -68.66 117.36 C-68.07 109.91 -67.51 102.46 -67 95 C-70.41 103.62 -73.78 112.24 -76.81 121 C-81.49 134.49 -86.77 147.78 -91.99 161.07 C-95.07 168.93 -98.02 176.81 -100.79 184.79 C-103.3 191.96 -106.13 198.98 -109 206 C-109.28 206.92 -109.57 207.85 -109.86 208.8 C-111 211 -111 211 -113.01 212.25 C-117.27 213.32 -121.5 213.66 -125.88 214 C-133.59 214.66 -141.21 215.5 -148.87 216.63 C-151.95 216.99 -154.91 217.07 -158 217 C-159.39 212 -160.78 207.01 -162.17 202.01 C-162.74 199.93 -163.32 197.86 -163.89 195.78 C-168.03 180.88 -172.09 165.96 -176.05 151.01 C-178.56 141.58 -181.16 132.18 -183.83 122.8 C-184.1 121.84 -184.37 120.89 -184.65 119.9 C-184.89 119.07 -185.13 118.24 -185.37 117.39 C-186.02 114.94 -186.51 112.48 -187 110 C-187.49 120.23 -187.96 130.46 -188.44 140.69 C-188.47 141.44 -188.51 142.19 -188.54 142.97 C-189.46 162.8 -190.33 182.63 -190.71 202.49 C-190.84 208.73 -191.04 214.82 -192 221 C-200.21 222.07 -208.42 223.13 -216.63 224.18 C-220.04 224.62 -223.44 225.06 -226.84 225.5 C-230.27 225.95 -233.7 226.38 -237.12 226.81 C-238.15 226.95 -239.18 227.08 -240.24 227.22 C-241.67 227.4 -241.67 227.4 -243.13 227.58 C-244.37 227.74 -244.37 227.74 -245.63 227.9 C-248.24 228.01 -250.47 227.61 -253 227 C-252.73 219.16 -252.44 211.32 -252.13 203.48 C-252.02 200.51 -251.92 197.54 -251.82 194.57 C-251.65 190.04 -251.37 185.52 -251 181 C-250.9 179.71 -250.8 178.41 -250.69 177.08 C-249.03 164.02 -243.46 152.26 -238.27 140.28 C-235.94 134.9 -233.76 129.46 -231.62 124 C-229.11 117.62 -226.37 111.41 -223.43 105.21 C-221.47 100.81 -219.83 96.32 -218.18 91.8 C-216.45 87.1 -214.48 82.57 -212.35 78.04 C-210.59 74.08 -209.05 70.05 -207.5 66 C-205.28 60.21 -202.95 54.53 -200.32 48.91 C-198.58 45.08 -196.98 41.2 -195.38 37.31 C-195.09 36.61 -194.8 35.91 -194.5 35.19 C-192.57 30.49 -190.76 25.76 -189 21 C-185.52 20.49 -182.04 19.99 -178.56 19.5 C-177.59 19.36 -176.61 19.21 -175.61 19.07 C-169.67 18.23 -164 17.85 -158 18 C-155.87 24.3 -153.89 30.63 -152 37 C-151.74 37.89 -151.47 38.77 -151.2 39.68 C-147.66 51.59 -144.29 63.52 -141.2 75.54 C-138.86 84.63 -136.29 93.64 -133.68 102.65 C-133.03 104.89 -132.4 107.14 -131.77 109.39 C-131.58 110.05 -131.4 110.71 -131.21 111.38 C-130.73 113.12 -130.24 114.85 -129.76 116.58 C-129.23 118.93 -129.23 118.93 -128 120 C-127.65 118.97 -127.3 117.94 -126.93 116.88 C-115.09 82.21 -115.09 82.21 -110.04 67.73 C-108.01 61.93 -106.01 56.13 -104.02 50.32 C-103.76 49.55 -103.5 48.78 -103.22 47.99 C-101.91 44.16 -100.61 40.33 -99.3 36.5 C-98.34 33.69 -97.37 30.87 -96.4 28.06 C-95.45 25.34 -94.54 22.6 -93.63 19.86 C-93.2 18.58 -92.76 17.29 -92.32 16 C-91.95 14.87 -91.57 13.73 -91.18 12.56 C-90.79 11.72 -90.4 10.87 -90 10 C-87.46 9.15 -85.61 8.79 -82.99 8.57 C-81.78 8.46 -81.78 8.46 -80.54 8.35 C-79.22 8.24 -79.22 8.24 -77.88 8.12 C-70.04 7.42 -62.24 6.59 -54.44 5.62 C-44.36 4.39 -34.28 3.22 -24.19 2.09 C-22.57 1.9 -20.95 1.72 -19.33 1.54 C-17.05 1.28 -14.77 1.02 -12.48 0.77 C-11.8 0.69 -11.12 0.61 -10.42 0.53 C-6.93 0.15 -3.51 -0.19 0 0 Z " fill="#FEFEFE" transform="translate(629,268)"/>
<path d="M0 0 C0.13 10.03 -0.26 19.99 -0.81 30 C-0.86 30.8 -0.9 31.6 -0.94 32.43 C-1.79 48.32 -2.84 64.2 -3.95 80.08 C-4.63 90.02 -5.23 99.96 -5.63 109.92 C-5.81 114.25 -6.17 118.47 -6.75 122.76 C-7.31 127.78 -7.45 132.83 -7.68 137.87 C-7.81 140.41 -7.93 142.95 -8.06 145.49 C-8.25 149.45 -8.44 153.41 -8.62 157.38 C-9.3 171.65 -9.98 185.84 -12 200 C-27.74 202.22 -43.49 204.26 -59.31 205.81 C-60 205.88 -60.68 205.95 -61.39 206.02 C-63.31 206.21 -65.25 206.4 -67.18 206.58 C-68.28 206.69 -69.38 206.79 -70.52 206.9 C-71.34 206.93 -72.16 206.97 -73 207 C-74.69 205.31 -74.13 203.24 -74.13 200.99 C-74.13 200.29 -74.12 199.59 -74.12 198.88 C-74.11 198.15 -74.11 197.43 -74.11 196.69 C-74.05 189.44 -73.62 182.23 -73.12 175 C-73.03 173.63 -72.95 172.25 -72.86 170.88 C-72.53 165.86 -72.19 160.85 -71.85 155.83 C-71.57 151.57 -71.29 147.3 -71.01 143.03 C-70.88 141.08 -70.75 139.12 -70.61 137.16 C-70.02 128.09 -69.91 119.08 -70 110 C-70.4 110.72 -70.8 111.43 -71.21 112.17 C-72.84 115.09 -74.48 118.02 -76.12 120.94 C-76.69 121.96 -77.26 122.98 -77.85 124.03 C-80.44 128.63 -83.04 133.15 -86.01 137.51 C-89.6 142.78 -92.62 148.35 -95.69 153.94 C-100.2 162.07 -104.81 170.11 -109.73 178.01 C-114.71 186.05 -119.38 194.27 -124.05 202.5 C-124.66 203.57 -125.28 204.64 -125.91 205.75 C-126.46 206.71 -127.01 207.68 -127.57 208.67 C-129 211 -129 211 -131 213 C-133.56 213.59 -136.05 214.06 -138.64 214.46 C-139.83 214.65 -139.83 214.65 -141.04 214.84 C-150.53 216.31 -160.08 217.35 -169.63 218.36 C-172.72 218.69 -175.82 219.03 -178.91 219.37 C-180.9 219.58 -182.9 219.8 -184.89 220.01 C-186.26 220.16 -186.26 220.16 -187.66 220.31 C-192.47 220.82 -197.16 221.1 -202 221 C-202.2 210.56 -201.64 200.26 -200.89 189.86 C-199.53 171.06 -198.43 152.26 -197.44 133.44 C-196.64 118.47 -195.84 103.5 -194.7 88.56 C-194.08 80.36 -193.59 72.17 -193.13 63.97 C-192.5 52.95 -191.83 41.94 -190.94 30.94 C-190.86 29.93 -190.78 28.93 -190.7 27.89 C-190.62 26.99 -190.54 26.08 -190.46 25.15 C-190.4 24.37 -190.33 23.58 -190.27 22.78 C-190 21 -190 21 -189 20 C-185.96 19.56 -182.93 19.19 -179.88 18.84 C-178.94 18.74 -178.01 18.63 -177.04 18.52 C-175.05 18.29 -173.05 18.07 -171.06 17.84 C-168.07 17.51 -165.08 17.16 -162.09 16.82 C-150.73 15.52 -139.42 14.51 -128 14 C-127.88 25.05 -128.24 36.03 -128.81 47.06 C-128.88 48.32 -128.88 48.32 -128.94 49.6 C-129.48 60.34 -130.12 71.07 -130.84 81.8 C-130.91 82.86 -130.98 83.92 -131.05 85.01 C-131.4 90.2 -131.75 95.39 -132.12 100.58 C-132.25 102.47 -132.38 104.36 -132.51 106.25 C-132.58 107.12 -132.64 107.99 -132.71 108.89 C-132.84 110.93 -132.93 112.96 -133 115 C-132.67 115.33 -132.34 115.66 -132 116 C-131.57 115.24 -131.14 114.48 -130.69 113.7 C-122.92 100.06 -115.15 86.43 -107.14 72.93 C-105.15 69.56 -103.17 66.19 -101.19 62.81 C-96.68 55.14 -92.15 47.48 -87.62 39.82 C-84.79 35.04 -81.97 30.25 -79.19 25.44 C-78.66 24.55 -78.14 23.67 -77.6 22.75 C-76.39 20.67 -75.25 18.59 -74.12 16.46 C-73.46 15.27 -72.79 14.07 -72.12 12.88 C-71.26 11.26 -71.26 11.26 -70.38 9.62 C-66.97 5.86 -63.91 5.6 -59 5 C-58.01 4.88 -57.02 4.75 -56.01 4.62 C-52.57 4.23 -49.13 3.89 -45.69 3.56 C-43.12 3.31 -40.56 3.06 -37.99 2.8 C-36.68 2.67 -35.37 2.54 -34.02 2.41 C-29.99 2 -25.97 1.56 -21.95 1.11 C-20.66 0.96 -19.38 0.82 -18.06 0.67 C-15.6 0.39 -13.13 0.11 -10.66 -0.17 C-9.55 -0.3 -8.44 -0.42 -7.3 -0.55 C-5.83 -0.71 -5.83 -0.71 -4.34 -0.89 C-2 -1 -2 -1 0 0 Z " fill="#FEFEFE" transform="translate(1071,222)"/>
<path d="M0 0 C0.51 16.53 -0.56 32.86 -1.72 49.33 C-2.81 64.86 -3.72 80.39 -4.56 95.94 C-5.44 112 -6.35 128.06 -7.46 144.11 C-7.93 150.79 -8.34 157.48 -8.75 164.18 C-8.89 166.35 -9.02 168.53 -9.16 170.7 C-9.36 173.96 -9.56 177.22 -9.76 180.48 C-9.94 183.52 -10.13 186.55 -10.32 189.58 C-10.37 190.5 -10.42 191.42 -10.48 192.37 C-10.53 193.22 -10.59 194.06 -10.64 194.93 C-10.71 196.04 -10.71 196.04 -10.78 197.18 C-11 199 -11 199 -12 201 C-14.91 201.61 -17.75 202.09 -20.69 202.5 C-21.58 202.63 -22.46 202.76 -23.38 202.89 C-30.96 203.94 -38.55 204.66 -46.18 205.3 C-52.45 205.83 -58.62 206.59 -64.83 207.63 C-68.9 208.1 -72.91 208.07 -77 208 C-76.45 187.03 -75 166.13 -73.56 145.2 C-72.99 136.91 -72.45 128.61 -71.94 120.31 C-71.82 118.44 -71.82 118.44 -71.7 116.54 C-71.27 109.6 -70.86 102.66 -70.47 95.73 C-70.38 94.16 -70.29 92.6 -70.2 91.03 C-70.03 88.04 -69.86 85.06 -69.7 82.07 C-69.62 80.71 -69.54 79.36 -69.46 78 C-69.4 76.81 -69.33 75.63 -69.27 74.41 C-68.99 70.91 -68.53 67.47 -68 64 C-78.77 64.96 -89.5 65.93 -100.19 67.63 C-102.84 67.98 -105.34 68.03 -108 68 C-107.99 68.75 -107.98 69.5 -107.97 70.27 C-107.92 79.34 -108.24 88.38 -108.75 97.44 C-108.81 98.57 -108.81 98.57 -108.88 99.72 C-110.82 133.34 -113.22 174.74 -137 201 C-137.89 202.02 -137.89 202.02 -138.79 203.07 C-151.14 216.46 -170.59 222.51 -188.46 223.26 C-192.3 223.35 -196.14 223.33 -199.98 223.28 C-202.36 223.25 -204.73 223.24 -207.12 223.23 C-208.64 223.23 -210.16 223.21 -211.68 223.2 C-212.38 223.2 -213.09 223.19 -213.82 223.19 C-218.77 223.12 -218.77 223.12 -221 222 C-220.39 203.6 -218.71 185.32 -217 167 C-215.78 167.03 -214.56 167.07 -213.31 167.11 C-211.68 167.13 -210.06 167.16 -208.44 167.19 C-207.64 167.21 -206.84 167.24 -206.01 167.26 C-198.7 167.35 -193.04 165.64 -187.41 160.64 C-175.78 147.14 -174.71 125.4 -173.68 108.44 C-173.58 106.87 -173.48 105.31 -173.37 103.75 C-173.11 99.66 -172.85 95.57 -172.59 91.47 C-172.34 87.41 -172.07 83.36 -171.81 79.3 C-171.34 72.18 -170.89 65.05 -170.44 57.93 C-169.96 50.35 -169.47 42.78 -168.98 35.2 C-168.85 33.16 -168.72 31.13 -168.59 29.09 C-168.39 26.06 -168.2 23.03 -168 20 C-163.95 18.78 -160.07 17.74 -155.86 17.29 C-154.89 17.18 -153.92 17.07 -152.92 16.96 C-151.88 16.85 -150.83 16.74 -149.75 16.62 C-147.4 16.36 -145.04 16.1 -142.69 15.84 C-141.44 15.71 -140.18 15.57 -138.89 15.43 C-134.97 15 -131.05 14.55 -127.12 14.09 C-110.44 12.16 -93.76 10.31 -77.06 8.5 C-76.09 8.39 -75.12 8.29 -74.12 8.18 C-72.16 7.97 -70.21 7.76 -68.25 7.55 C-57.62 6.39 -46.98 5.24 -36.34 4.06 C-34.86 3.9 -33.37 3.74 -31.88 3.57 C-23.24 2.63 -14.62 1.58 -6.01 0.37 C-3 0 -3 0 0 0 Z " fill="#FEFEFE" transform="translate(857,242)"/>
<path d="M0 0 C-1.31 24.41 -2.79 48.81 -4.51 73.19 C-6.03 94.75 -7.39 116.3 -8.56 137.88 C-10.2 167.91 -10.2 167.91 -11.12 182 C-11.2 183.17 -11.28 184.35 -11.35 185.55 C-11.68 190.42 -12.05 195.2 -13 200 C-20.79 201.75 -28.56 202.7 -36.5 203.5 C-38.99 203.76 -41.47 204.01 -43.96 204.27 C-45.16 204.39 -46.36 204.52 -47.6 204.64 C-50.57 204.96 -53.54 205.29 -56.51 205.64 C-57.31 205.73 -58.12 205.82 -58.95 205.92 C-60.37 206.09 -61.8 206.26 -63.23 206.44 C-68.17 207.02 -73.03 207.08 -78 207 C-78.17 197.31 -77.65 187.67 -77.12 178 C-77.06 176.76 -77.06 176.76 -76.99 175.49 C-76.2 160.64 -75.2 145.82 -74 131 C-74.72 131.12 -75.45 131.24 -76.19 131.36 C-85.13 132.79 -94.09 133.87 -103.09 134.86 C-105.52 135.13 -107.96 135.4 -110.4 135.68 C-111.96 135.85 -113.53 136.02 -115.09 136.2 C-115.81 136.28 -116.54 136.36 -117.28 136.44 C-120.87 136.83 -124.39 137.09 -128 137 C-127.99 137.68 -127.98 138.36 -127.97 139.06 C-127.9 147.71 -128.34 156.31 -128.88 164.94 C-128.97 166.42 -129.06 167.91 -129.15 169.39 C-129.38 173.18 -129.62 176.97 -129.86 180.76 C-130 182.96 -130.14 185.17 -130.27 187.37 C-130.53 191.41 -130.8 195.46 -131.06 199.5 C-131.14 200.73 -131.22 201.97 -131.3 203.24 C-131.38 204.37 -131.46 205.49 -131.54 206.66 C-131.6 207.64 -131.67 208.63 -131.73 209.65 C-132 212 -132 212 -133 214 C-136.08 214.51 -139.09 214.9 -142.2 215.22 C-143.13 215.32 -144.07 215.43 -145.04 215.53 C-148.07 215.86 -151.1 216.18 -154.12 216.5 C-157.09 216.82 -160.06 217.14 -163.03 217.46 C-164.97 217.68 -166.91 217.88 -168.84 218.09 C-175.59 218.82 -182.31 219.68 -189.03 220.65 C-191.74 220.97 -194.28 221.14 -197 221 C-197.33 220.67 -197.66 220.34 -198 220 C-197.96 216.99 -197.85 214 -197.7 211 C-197.65 210.08 -197.61 209.17 -197.56 208.23 C-197.47 206.3 -197.37 204.36 -197.28 202.42 C-197.13 199.47 -196.99 196.53 -196.85 193.58 C-196.76 191.7 -196.66 189.82 -196.57 187.93 C-196.51 186.62 -196.51 186.62 -196.44 185.28 C-196.22 180.87 -195.83 176.53 -195.25 172.14 C-194.73 167.6 -194.55 163.03 -194.32 158.46 C-194.26 157.34 -194.2 156.23 -194.13 155.08 C-193.94 151.51 -193.75 147.94 -193.56 144.38 C-192.73 128.77 -191.84 113.18 -190.78 97.6 C-190.18 88.82 -189.63 80.05 -189.09 71.27 C-188.97 69.16 -188.84 67.04 -188.71 64.92 C-188.19 56.38 -188.19 56.38 -187.67 47.85 C-187.46 44.28 -187.25 40.72 -187.03 37.16 C-186.9 35.18 -186.79 33.2 -186.67 31.21 C-186.6 30.03 -186.52 28.85 -186.45 27.63 C-186.39 26.58 -186.32 25.54 -186.26 24.47 C-186 22 -186 22 -185 20 C-177.2 17.79 -168.7 17.54 -160.65 16.82 C-152.19 16.06 -143.77 15.04 -135.35 13.97 C-130.54 13.36 -125.86 12.82 -121 13 C-119.59 17.03 -120.06 21.06 -120.3 25.24 C-120.37 26.44 -120.37 26.44 -120.44 27.66 C-120.53 29.35 -120.63 31.04 -120.72 32.73 C-120.87 35.29 -121.01 37.86 -121.15 40.43 C-121.24 42.07 -121.34 43.72 -121.43 45.36 C-121.47 46.12 -121.51 46.88 -121.56 47.67 C-121.82 52.16 -122.34 56.55 -123 61 C-123.13 62.68 -123.24 64.37 -123.32 66.06 C-123.36 66.94 -123.4 67.82 -123.44 68.72 C-123.48 69.62 -123.52 70.52 -123.56 71.44 C-123.63 72.82 -123.63 72.82 -123.69 74.23 C-123.8 76.49 -123.9 78.74 -124 81 C-123.21 80.88 -122.41 80.76 -121.59 80.64 C-110.7 79.03 -99.78 77.84 -88.84 76.67 C-86.45 76.42 -84.06 76.16 -81.68 75.9 C-80.95 75.83 -80.22 75.75 -79.47 75.67 C-76.49 75.35 -73.85 74.95 -71 74 C-70.68 69.56 -70.37 65.13 -70.06 60.69 C-69.99 59.69 -69.99 59.69 -69.92 58.68 C-69.37 50.75 -68.86 42.82 -68.5 34.88 C-68.19 28.35 -67.67 21.87 -67 15.38 C-66.92 14.55 -66.83 13.72 -66.75 12.87 C-66.12 7.12 -66.12 7.12 -65 6 C-63.67 5.77 -62.33 5.6 -60.99 5.46 C-60.14 5.37 -59.29 5.27 -58.41 5.18 C-57.48 5.08 -56.55 4.98 -55.59 4.88 C-54.62 4.77 -53.66 4.67 -52.67 4.56 C-49.57 4.22 -46.47 3.89 -43.38 3.56 C-39.34 3.13 -35.31 2.69 -31.27 2.25 C-30.3 2.15 -29.32 2.04 -28.31 1.94 C-21.5 1.19 -14.72 0.3 -7.95 -0.75 C-5.04 -1 -2.81 -0.73 0 0 Z " fill="#FEFEFE" transform="translate(1280,197)"/>
<path d="M0 0 C2.87 1.13 3.89 2.99 5.66 5.5 C6.44 6.59 7.23 7.68 8.02 8.76 C8.46 9.38 8.91 10.01 9.37 10.65 C12.48 14.9 15.7 19.06 18.91 23.25 C20.29 25.07 21.68 26.89 23.06 28.71 C25.35 31.71 27.64 34.71 29.94 37.7 C30.76 38.78 31.58 39.86 32.41 40.94 C33.1 41.84 33.79 42.74 34.5 43.67 C35.91 45.75 35.91 45.75 35.91 47.75 C36.57 47.75 37.23 47.75 37.91 47.75 C38.86 49.12 39.81 50.5 40.71 51.91 C42.95 55.35 45.52 58.56 48.03 61.81 C48.61 62.56 49.19 63.31 49.78 64.09 C52.34 67.43 54.91 70.76 57.49 74.08 C63.05 81.26 68.47 88.53 73.82 95.86 C77.76 101.23 81.8 106.51 85.91 111.75 C87.94 114.38 89.96 117.01 91.99 119.65 C92.42 120.21 92.85 120.77 93.3 121.35 C93.73 121.92 94.16 122.48 94.6 123.05 C95.89 124.72 97.17 126.39 98.45 128.05 C104 135.24 109.47 142.48 114.91 149.75 C121.33 158.34 127.79 166.91 134.34 175.4 C137.76 179.84 141.1 184.33 144.45 188.81 C147.57 192.98 150.72 197.12 153.91 201.25 C158.14 206.73 162.29 212.25 166.44 217.8 C169.64 222.08 172.88 226.33 176.16 230.56 C180.52 236.21 184.75 241.95 188.91 247.75 C184.64 252.26 179.93 256.02 175.03 259.81 C174.25 260.42 173.48 261.03 172.68 261.66 C168.25 265.11 163.85 268.1 158.91 270.75 C151.76 262.3 145.16 253.48 138.55 244.62 C134.87 239.69 131.12 234.82 127.36 229.95 C124.51 226.24 121.71 222.5 118.91 218.75 C113.64 211.7 108.29 204.71 102.91 197.75 C95.75 188.49 88.7 179.16 81.7 169.79 C77.54 164.24 73.35 158.72 69.12 153.22 C59.18 140.32 49.29 127.38 39.69 114.23 C36.3 109.6 32.82 105.07 29.21 100.6 C27.91 98.75 27.91 98.75 27.91 96.75 C27.25 96.75 26.59 96.75 25.91 96.75 C24.31 94.8 24.31 94.8 22.41 92.06 C19.34 87.74 16.22 83.5 12.97 79.31 C8.92 74.07 4.92 68.8 0.96 63.49 C-0.35 61.75 -1.66 60.01 -2.99 58.29 C-3.54 57.58 -4.09 56.86 -4.66 56.12 C-5.13 55.51 -5.61 54.9 -6.1 54.27 C-7.09 52.75 -7.09 52.75 -7.09 50.75 C-7.75 50.75 -8.41 50.75 -9.09 50.75 C-10.04 49.39 -10.98 48.02 -11.86 46.62 C-14.26 42.98 -16.99 39.58 -19.66 36.12 C-20.8 34.63 -21.95 33.14 -23.1 31.65 C-23.6 30.99 -24.1 30.34 -24.62 29.67 C-25.11 29.03 -25.59 28.4 -26.09 27.75 C-26.65 27.05 -27.21 26.35 -27.78 25.63 C-29.09 23.75 -29.09 23.75 -29.07 21.75 C-26.99 17.48 -22.55 14.92 -18.85 12.09 C-17.62 11.15 -16.39 10.2 -15.17 9.24 C-13.18 7.69 -11.17 6.15 -9.16 4.62 C-8.52 4.13 -7.88 3.63 -7.22 3.12 C-2.62 -0.32 -2.62 -0.32 0 0 Z " fill="#FEFEFE" transform="translate(127.093017578125,108.25146484375)"/>
<path d="M0 0 C7.39 0.68 13.6 3.41 20.38 6.25 C21.58 6.73 22.78 7.21 24.01 7.7 C25.72 8.41 25.72 8.41 27.46 9.14 C28.5 9.57 29.54 10 30.61 10.44 C33 12 33 12 33.93 14.45 C34.04 18.43 32.36 21.64 30.75 25.19 C30 26.89 29.26 28.59 28.52 30.29 C28.11 31.21 27.7 32.12 27.29 33.07 C24.97 38.35 22.74 43.68 20.5 49 C19.56 51.23 18.61 53.46 17.67 55.69 C14.73 62.63 11.81 69.57 8.89 76.51 C7.61 79.55 6.33 82.58 5.05 85.62 C1.03 95.11 -2.91 104.62 -6.77 114.18 C-8.5 118.45 -10.29 122.68 -12.23 126.86 C-16.28 135.7 -19.95 144.71 -23.69 153.69 C-24.5 155.63 -25.31 157.57 -26.12 159.51 C-28.42 165.01 -30.71 170.5 -33 176 C-33.44 177.05 -33.44 177.05 -33.88 178.12 C-35.85 182.85 -37.82 187.57 -39.79 192.3 C-43.18 200.45 -46.6 208.58 -50.03 216.71 C-51.69 220.64 -53.34 224.57 -55 228.5 C-55.67 230.09 -56.34 231.68 -57.01 233.28 C-58.31 236.35 -59.6 239.43 -60.89 242.5 C-62.55 246.43 -64.2 250.36 -65.86 254.29 C-66.67 256.22 -67.48 258.15 -68.29 260.08 C-74.06 273.78 -79.89 287.45 -86 301 C-90.34 301.33 -93 300.3 -96.88 298.38 C-102.58 295.63 -108.34 293.2 -114.24 290.92 C-118.9 289.1 -118.9 289.1 -120 288 C-119.58 282.31 -117.86 277.71 -115.57 272.52 C-115.22 271.71 -114.88 270.9 -114.52 270.07 C-113.4 267.46 -112.26 264.86 -111.12 262.25 C-109.57 258.64 -108.01 255.02 -106.46 251.41 C-106.08 250.52 -105.69 249.62 -105.29 248.7 C-101.57 240.03 -98 231.3 -94.49 222.54 C-92.19 216.81 -89.75 211.18 -87.17 205.58 C-85.49 201.88 -83.96 198.14 -82.44 194.38 C-78.91 185.73 -78.91 185.73 -77 181.56 C-75.02 177.2 -73.34 172.72 -71.62 168.25 C-69.63 163.05 -67.57 157.92 -65.19 152.88 C-60.89 143.8 -57.16 134.48 -53.32 125.2 C-51.18 120.02 -49.03 114.86 -46.88 109.69 C-46.46 108.68 -46.04 107.68 -45.61 106.65 C-39.48 91.95 -33.28 77.29 -27.07 62.63 C-22.35 51.46 -17.64 40.28 -12.94 29.1 C-10.96 24.4 -8.98 19.7 -7 15 C-6.55 13.92 -6.55 13.92 -6.08 12.83 C-5.25 10.84 -4.4 8.86 -3.56 6.88 C-2.85 5.2 -2.85 5.2 -2.13 3.49 C-1 1 -1 1 0 0 Z " fill="#FEFEFE" transform="translate(450,12)"/>
<path d="M0 0 C1.3 0.01 1.3 0.01 2.62 0.03 C3.26 0.04 3.9 0.05 4.56 0.06 C5.14 4.37 5.71 8.67 6.27 12.98 C6.46 14.44 6.66 15.9 6.85 17.37 C7.14 19.47 7.41 21.58 7.69 23.7 C7.86 24.96 8.02 26.23 8.2 27.54 C8.53 30.75 8.63 33.84 8.56 37.06 C-9.15 39.62 -26.88 41.87 -44.66 43.95 C-59.06 45.64 -59.06 45.64 -73.44 47.56 C-84.06 49.07 -94.72 50.31 -105.38 51.56 C-119.09 53.18 -132.8 54.84 -146.49 56.67 C-151.96 57.4 -157.43 58.1 -162.91 58.8 C-171.66 59.93 -180.41 61.06 -189.16 62.21 C-202.16 63.91 -215.18 65.54 -228.19 67.16 C-233.58 67.83 -238.97 68.51 -244.36 69.18 C-248.62 69.72 -252.88 70.25 -257.14 70.79 C-259.22 71.05 -261.31 71.31 -263.39 71.58 C-276.06 73.17 -288.74 74.7 -301.44 76.06 C-302.9 72.01 -303.81 68.25 -304.29 63.96 C-304.42 62.83 -304.55 61.7 -304.68 60.54 C-304.87 58.79 -304.87 58.79 -305.06 57 C-305.2 55.83 -305.33 54.66 -305.47 53.45 C-306.62 43.14 -306.62 43.14 -306.44 39.06 C-304.76 37.39 -302.59 37.57 -300.29 37.27 C-299.16 37.11 -298.03 36.96 -296.87 36.81 C-295.61 36.64 -294.36 36.48 -293.06 36.31 C-292.41 36.23 -291.76 36.14 -291.09 36.05 C-277.93 34.32 -264.74 32.81 -251.55 31.31 C-238.07 29.77 -224.63 28.03 -211.2 26.12 C-200.41 24.58 -189.62 23.24 -178.79 22.08 C-171.22 21.27 -163.68 20.34 -156.14 19.33 C-149.56 18.46 -142.97 17.63 -136.38 16.83 C-135.48 16.72 -134.58 16.61 -133.65 16.5 C-129.13 15.95 -124.6 15.41 -120.08 14.86 C-111.59 13.84 -103.13 12.76 -94.67 11.53 C-89.14 10.73 -83.6 10.02 -78.06 9.31 C-76.15 9.07 -76.15 9.07 -74.2 8.82 C-58.99 6.86 -43.77 4.97 -28.55 3.08 C-27.03 2.89 -27.03 2.89 -25.48 2.7 C-23.57 2.46 -21.66 2.22 -19.76 1.99 C-16.05 1.53 -12.34 1.05 -8.65 0.49 C-5.71 0.1 -2.95 -0.04 0 0 Z " fill="#FEFEFE" transform="translate(317.4375,424.9375)"/>
<path d="M0 0 C11.61 3.94 23.08 8.38 34 14 C33.3 18.69 31.58 22.78 29.75 27.12 C29.43 27.88 29.12 28.64 28.79 29.43 C26.73 34.35 24.56 39.21 22.32 44.06 C18.59 52.39 15.22 60.89 11.88 69.38 C10.57 72.65 9.17 75.86 7.69 79.06 C4.95 85.01 2.48 91.05 0 97.11 C-7.1 114.47 -14.42 131.75 -21.74 149.02 C-24.2 154.84 -26.66 160.68 -29.11 166.51 C-30.39 169.55 -31.67 172.58 -32.95 175.62 C-36.59 184.22 -40.17 192.85 -43.69 201.5 C-46.25 207.8 -48.87 214.05 -51.75 220.21 C-55.41 228.36 -58.7 236.7 -62 245 C-66.13 244.65 -69.4 243.95 -73.16 242.21 C-76.35 240.75 -79.55 239.33 -82.78 237.96 C-84.35 237.29 -85.93 236.61 -87.5 235.94 C-88.31 235.6 -89.12 235.26 -89.95 234.91 C-91.11 234.41 -91.11 234.41 -92.28 233.9 C-92.97 233.61 -93.66 233.31 -94.38 233.01 C-96 232 -96 232 -97 229 C-96.29 226.57 -96.29 226.57 -95.12 223.7 C-94.49 222.12 -94.49 222.12 -93.84 220.51 C-93.14 218.83 -93.14 218.83 -92.44 217.12 C-91.74 215.42 -91.74 215.42 -91.03 213.67 C-88.32 207.06 -85.49 200.53 -82.42 194.08 C-79.38 187.49 -76.73 180.72 -74 174 C-67.35 157.67 -67.35 157.67 -64.5 151.5 C-61.83 145.71 -59.43 139.82 -57.02 133.92 C-54.72 128.31 -52.39 122.72 -50.06 117.12 C-49.63 116.1 -49.21 115.07 -48.77 114.01 C-45.85 107.03 -42.92 100.06 -39.98 93.1 C-37.37 86.92 -34.84 80.71 -32.31 74.5 C-29.74 68.17 -27.1 61.9 -24.22 55.71 C-21.68 50.07 -19.4 44.31 -17.06 38.58 C-15.01 33.59 -12.94 28.61 -10.88 23.62 C-10.47 22.64 -10.06 21.65 -9.64 20.64 C-1.82 1.82 -1.82 1.82 0 0 Z " fill="#FEFEFE" transform="translate(457,544)"/>
<path d="M0 0 C1.91 2.36 3.72 4.73 5.5 7.19 C6.6 8.68 7.7 10.17 8.8 11.66 C9.34 12.4 9.89 13.14 10.45 13.91 C12.51 16.7 14.63 19.44 16.75 22.19 C27.04 35.53 37.28 48.91 47.22 62.52 C50.61 67.15 54.09 71.68 57.7 76.14 C59 78 59 78 59 80 C59.66 80 60.32 80 61 80 C62.49 81.81 62.49 81.81 64.31 84.44 C67.86 89.44 71.51 94.33 75.25 99.19 C79.6 104.85 83.91 110.53 88.19 116.25 C92.22 121.65 96.3 127.01 100.42 132.35 C103.15 135.88 105.83 139.43 108.5 143 C111.89 147.53 115.32 152.03 118.78 156.52 C129.34 170.23 139.84 183.99 150 198 C148.63 201.21 147.19 202.91 144.4 204.99 C143.69 205.53 142.97 206.07 142.23 206.62 C141.48 207.18 140.72 207.74 139.94 208.31 C138.4 209.47 136.85 210.62 135.31 211.78 C134.2 212.61 134.2 212.61 133.06 213.46 C130.5 215.38 127.96 217.34 125.44 219.31 C124.76 219.84 124.07 220.38 123.37 220.93 C122.69 221.46 122.69 221.46 122 222 C117.54 218.79 114.62 215.14 111.44 210.75 C110.38 209.31 109.32 207.87 108.25 206.43 C107.45 205.33 107.45 205.33 106.62 204.21 C104.06 200.72 101.47 197.27 98.88 193.81 C98.37 193.14 97.87 192.48 97.36 191.79 C91.5 183.99 85.55 176.26 79.55 168.58 C73.89 161.34 68.27 154.1 62.91 146.63 C59.06 141.33 55.01 136.18 51 131 C45.09 123.36 39.25 115.68 33.47 107.95 C29.88 103.15 26.24 98.39 22.57 93.64 C19.91 90.2 17.29 86.73 14.69 83.25 C11.12 78.47 7.5 73.73 3.88 69 C-1.61 61.84 -7.06 54.64 -12.45 47.41 C-15.48 43.35 -18.53 39.31 -21.65 35.32 C-22.22 34.59 -22.78 33.86 -23.37 33.1 C-24.43 31.74 -25.5 30.37 -26.58 29.02 C-30.06 24.52 -30.06 24.52 -29.77 21.93 C-28.56 18.89 -26.32 17.69 -23.69 15.81 C-22.6 15.03 -21.51 14.24 -20.42 13.45 C-19.86 13.05 -19.3 12.65 -18.72 12.24 C-15.92 10.22 -13.18 8.14 -10.44 6.06 C-2.39 0 -2.39 0 0 0 Z " fill="#FEFEFE" transform="translate(73,181)"/>
<path d="M0 0 C11.61 3.94 23.08 8.38 34 14 C33.43 18.1 32.52 21.57 30.88 25.36 C30.45 26.38 30.01 27.4 29.56 28.45 C29.09 29.54 28.61 30.63 28.12 31.75 C27.12 34.09 26.12 36.43 25.11 38.77 C24.6 39.97 24.08 41.16 23.55 42.4 C21.11 48.07 18.71 53.75 16.31 59.44 C15.4 61.6 14.49 63.76 13.57 65.91 C13.14 66.94 12.71 67.97 12.26 69.02 C11.08 71.82 9.89 74.61 8.71 77.4 C5.83 84.19 2.98 90.97 0.38 97.88 C-1.65 103.25 -4.01 108.41 -6.46 113.61 C-8.11 117.24 -9.6 120.91 -11.06 124.62 C-12.75 128.93 -14.49 133.18 -16.44 137.38 C-19.13 143.2 -21.55 149.14 -23.98 155.08 C-26.28 160.69 -28.61 166.28 -30.94 171.88 C-31.37 172.9 -31.79 173.93 -32.23 174.99 C-35.15 181.97 -38.08 188.94 -41.02 195.9 C-43.63 202.08 -46.16 208.29 -48.69 214.5 C-51.64 221.74 -54.69 228.91 -58 236 C-58.77 237.73 -59.55 239.46 -60.31 241.19 C-60.64 241.92 -60.96 242.66 -61.3 243.42 C-61.53 243.94 -61.76 244.46 -62 245 C-68.21 243.88 -73.4 242.08 -79.08 239.36 C-83.14 237.47 -87.3 235.85 -91.47 234.21 C-93.88 233.06 -95.28 232.01 -97 230 C-91.41 215.77 -91.41 215.77 -88.56 209.62 C-85.86 203.79 -83.44 197.84 -81 191.89 C-73.13 172.64 -65 153.51 -56.88 134.36 C-52.96 125.1 -49.1 115.82 -45.31 106.5 C-42.74 100.17 -40.1 93.9 -37.22 87.71 C-35.02 82.84 -33.04 77.87 -31.02 72.92 C-28.72 67.31 -26.39 61.72 -24.06 56.12 C-23.42 54.58 -23.42 54.58 -22.77 53.01 C-19.86 46.04 -16.93 39.08 -13.98 32.12 C-12.15 27.77 -10.35 23.41 -8.57 19.04 C-8.17 18.03 -7.76 17.03 -7.34 15.99 C-6.55 14.04 -5.76 12.08 -4.97 10.12 C-4.43 8.79 -4.43 8.79 -3.88 7.44 C-3.41 6.26 -3.41 6.26 -2.93 5.06 C-2 3 -2 3 0 0 Z " fill="#FEFEFE" transform="translate(361,0)"/>
<path d="M0 0 C1.61 7.44 2.74 14.89 3.69 22.44 C3.83 23.51 3.97 24.59 4.12 25.69 C4.25 26.72 4.38 27.75 4.51 28.81 C4.63 29.73 4.75 30.66 4.87 31.61 C5 34 5 34 4 37 C3.34 37.08 2.68 37.16 2 37.24 C-1.06 37.62 -4.12 38 -7.19 38.38 C-8.22 38.5 -9.26 38.63 -10.33 38.76 C-15.51 39.4 -20.68 40.09 -25.84 40.92 C-34.93 42.35 -44.07 43.39 -53.21 44.49 C-68.19 46.29 -83.17 48.1 -98.12 50.12 C-99.86 50.36 -99.86 50.36 -101.63 50.6 C-103.92 50.91 -106.21 51.22 -108.5 51.53 C-124.37 53.67 -140.26 55.74 -156.19 57.44 C-166.83 58.57 -177.41 60 -188 61.5 C-206.62 64.14 -225.26 66.35 -244 68 C-245.5 61.85 -246.5 55.79 -247.12 49.5 C-247.21 48.71 -247.3 47.92 -247.39 47.11 C-247.94 41.71 -248.08 36.42 -248 31 C-238.29 29.14 -228.65 27.66 -218.81 26.7 C-213.29 26.16 -207.84 25.39 -202.37 24.5 C-197.58 23.79 -192.78 23.28 -187.97 22.79 C-182.17 22.18 -176.41 21.36 -170.64 20.52 C-164.85 19.69 -159.05 18.94 -153.25 18.19 C-151.95 18.02 -150.65 17.85 -149.31 17.68 C-136.77 16.07 -124.22 14.59 -111.67 13.11 C-101.07 11.86 -90.48 10.58 -79.91 9.09 C-70.81 7.82 -61.68 6.69 -52.56 5.56 C-51.19 5.39 -49.82 5.22 -48.45 5.05 C-47.76 4.97 -47.07 4.88 -46.37 4.79 C-42.02 4.26 -37.68 3.7 -33.34 3.14 C-30.43 2.77 -27.51 2.39 -24.6 2.02 C-23.22 1.84 -21.83 1.66 -20.45 1.48 C-13.59 0.58 -6.92 -0.24 0 0 Z " fill="#FEFEFE" transform="translate(298,517)"/>
<path d="M0 0 C1.63 4.4 2.42 8.45 2.89 13.11 C2.95 13.77 3.02 14.42 3.09 15.1 C3.22 16.47 3.36 17.84 3.49 19.22 C3.69 21.32 3.9 23.43 4.12 25.54 C4.25 26.88 4.38 28.21 4.51 29.55 C4.69 31.37 4.69 31.37 4.87 33.23 C4.91 34.14 4.96 35.06 5 36 C3.26 37.74 0.79 37.44 -1.58 37.68 C-2.74 37.81 -3.9 37.93 -5.1 38.06 C-6.32 38.18 -7.55 38.31 -8.81 38.44 C-16.64 39.24 -24.39 40.17 -32.14 41.52 C-36.77 42.3 -41.41 42.87 -46.06 43.44 C-47.08 43.56 -48.09 43.69 -49.13 43.82 C-58.24 44.93 -67.35 45.95 -76.47 46.91 C-83.01 47.61 -89.5 48.51 -95.99 49.54 C-100.68 50.26 -105.38 50.74 -110.09 51.21 C-114.31 51.65 -118.48 52.22 -122.66 52.89 C-131.49 54.28 -140.37 55.31 -149.24 56.37 C-154.66 57.02 -160.07 57.68 -165.49 58.34 C-166.6 58.48 -167.72 58.61 -168.86 58.75 C-182.68 60.44 -196.48 62.22 -210.28 64 C-221.18 65.4 -232.08 66.74 -243 68 C-244.97 62.41 -245.85 57.04 -246.62 51.19 C-246.76 50.24 -246.89 49.29 -247.03 48.32 C-247.82 42.49 -248.13 36.88 -248 31 C-242.45 28.81 -236.94 28.26 -231.06 27.62 C-228.81 27.37 -226.55 27.11 -224.29 26.85 C-223.1 26.71 -221.91 26.57 -220.69 26.43 C-214.41 25.7 -208.14 24.88 -201.88 24.06 C-200.58 23.89 -199.28 23.73 -197.94 23.55 C-191.32 22.7 -184.7 21.83 -178.09 20.96 C-166.01 19.38 -153.93 17.85 -141.81 16.56 C-130.39 15.34 -119.04 13.78 -107.67 12.17 C-96.57 10.59 -85.46 9.21 -74.3 8.02 C-67.64 7.31 -61.01 6.5 -54.38 5.56 C-45.58 4.33 -36.78 3.18 -27.96 2.09 C-26.51 1.91 -25.05 1.72 -23.6 1.54 C-15.72 0.53 -7.96 -0.31 0 0 Z " fill="#FEFEFE" transform="translate(706,163)"/>
<path d="M0 0 C6.97 1.96 13.67 4.33 20.38 7.06 C21.69 7.59 21.69 7.59 23.03 8.13 C26.76 9.63 30.42 11.16 34 13 C33.47 18 32.37 21.89 30.25 26.44 C26.52 34.64 23.12 42.96 19.75 51.31 C19.18 52.72 18.61 54.12 18.05 55.52 C17.19 57.64 16.34 59.75 15.48 61.87 C12.79 68.52 10.09 75.17 7.38 81.81 C4.63 88.54 1.89 95.28 -0.85 102.01 C-5.28 112.93 -9.75 123.84 -14.36 134.69 C-16.65 140.12 -18.78 145.6 -20.86 151.11 C-21.94 153.86 -23.13 156.52 -24.38 159.19 C-27 164.82 -29.19 170.58 -31.41 176.38 C-33.34 181.4 -35.45 186.27 -37.75 191.13 C-39.67 195.54 -41.28 200.07 -42.86 204.61 C-44.12 208.13 -45.25 210.49 -48 213 C-51.81 211.42 -55.63 209.83 -59.44 208.25 C-60.51 207.81 -61.58 207.36 -62.68 206.91 C-68.82 204.35 -74.94 201.74 -81 199 C-80.43 194.9 -79.52 191.42 -77.89 187.62 C-77.26 186.12 -77.26 186.12 -76.61 184.6 C-76.16 183.56 -75.71 182.51 -75.25 181.44 C-74.33 179.28 -73.42 177.12 -72.5 174.95 C-71.85 173.41 -71.85 173.41 -71.18 171.83 C-69.78 168.47 -68.47 165.09 -67.19 161.69 C-65.79 157.99 -64.3 154.39 -62.62 150.81 C-60 145.18 -57.81 139.42 -55.59 133.62 C-53.99 129.47 -52.33 125.4 -50.44 121.38 C-48.38 116.99 -46.67 112.54 -45 108 C-43.35 103.51 -41.66 99.09 -39.62 94.75 C-37.41 90 -35.43 85.18 -33.5 80.31 C-29.87 71.17 -26.2 62.05 -22.5 52.94 C-22.22 52.24 -21.94 51.55 -21.64 50.83 C-17.76 41.27 -13.82 31.73 -9.79 22.23 C-8.5 19.2 -7.24 16.16 -6 13.11 C-5.67 12.32 -5.35 11.52 -5.01 10.7 C-4.39 9.19 -3.78 7.68 -3.17 6.16 C-1.11 1.11 -1.11 1.11 0 0 Z " fill="#FEFEFE" transform="translate(350,566)"/>
<path d="M0 0 C0.99 0 1.98 0 3 0 C4.44 1.51 4.44 1.51 5.93 3.63 C6.49 4.41 7.05 5.19 7.63 5.99 C8.23 6.84 8.82 7.69 9.44 8.56 C10.7 10.32 11.96 12.07 13.22 13.82 C13.86 14.69 14.49 15.57 15.14 16.47 C17.78 20.07 20.56 23.54 23.38 27 C27.37 31.93 31.21 36.94 34.91 42.1 C37.4 45.55 39.94 48.97 42.5 52.38 C43 53.04 43.5 53.71 44.02 54.4 C48.28 60.06 52.58 65.69 56.88 71.31 C62.71 78.94 68.44 86.64 74.12 94.38 C79.84 102.18 85.73 109.83 91.7 117.44 C92.14 118.01 92.59 118.59 93.05 119.18 C94.29 120.77 95.53 122.35 96.77 123.93 C99.14 127.19 101.07 130.47 103 134 C83.78 149.06 83.78 149.06 74 156 C70.23 152.37 66.95 148.57 63.75 144.44 C63.27 143.82 62.79 143.21 62.3 142.57 C58.22 137.32 54.22 132.01 50.25 126.67 C47.78 123.36 45.29 120.06 42.81 116.75 C41.37 114.82 39.92 112.89 38.48 110.96 C37.43 109.57 36.37 108.18 35.3 106.81 C34.75 106.09 34.2 105.38 33.64 104.64 C33.13 103.99 32.63 103.34 32.11 102.67 C31 101 31 101 31 99 C30.34 99 29.68 99 29 99 C28.04 97.62 27.08 96.23 26.18 94.81 C24.04 91.52 21.58 88.47 19.19 85.38 C14.18 78.87 9.23 72.32 4.31 65.75 C-0.58 59.21 -5.52 52.71 -10.51 46.24 C-13.54 42.31 -16.52 38.34 -19.5 34.38 C-20.02 33.69 -20.53 33 -21.07 32.29 C-21.55 31.65 -22.03 31 -22.53 30.34 C-22.96 29.76 -23.39 29.19 -23.83 28.6 C-27.01 24.25 -27.01 24.25 -26.95 22.07 C-25.55 19.03 -23.47 17.8 -20.75 15.88 C-19.66 15.09 -18.58 14.31 -17.5 13.52 C-16.93 13.12 -16.36 12.71 -15.77 12.29 C-12.74 10.08 -9.78 7.79 -6.81 5.5 C-6.25 5.07 -5.68 4.63 -5.1 4.19 C-2.46 2.2 -2.46 2.2 0 0 Z " fill="#FEFEFE" transform="translate(27,274)"/>
<path d="M0 0 C7.25 2.71 14.4 5.53 21.41 8.81 C23.14 9.61 24.89 10.37 26.65 11.1 C27.47 11.44 28.28 11.78 29.12 12.12 C30.21 12.56 30.21 12.56 31.32 13.01 C33 14 33 14 34 17 C33.46 18.89 33.46 18.89 32.52 21.03 C32.18 21.81 31.85 22.6 31.5 23.41 C30.94 24.66 30.94 24.66 30.38 25.94 C29.63 27.67 28.88 29.39 28.13 31.12 C27.58 32.38 27.58 32.38 27.02 33.66 C25.74 36.59 24.52 39.54 23.31 42.5 C21.83 46.06 20.29 49.58 18.68 53.08 C15.95 59.07 13.37 65.12 10.81 71.19 C10.1 72.87 10.1 72.87 9.38 74.58 C5.32 84.2 1.3 93.84 -2.71 103.49 C-3.08 104.39 -3.45 105.28 -3.84 106.2 C-4.66 108.19 -5.49 110.18 -6.32 112.18 C-6.75 113.23 -7.19 114.29 -7.64 115.37 C-8.04 116.32 -8.43 117.28 -8.84 118.26 C-9.97 120.93 -11.16 123.56 -12.38 126.19 C-14.9 131.68 -17.19 137.27 -19.48 142.87 C-21.27 147.26 -23.12 151.62 -25.11 155.93 C-25.79 157.51 -26.4 159.11 -26.99 160.72 C-27.32 161.64 -27.66 162.56 -28 163.5 C-28.29 164.34 -28.58 165.17 -28.88 166.03 C-30 168 -30 168 -31.66 168.97 C-35.28 169.01 -38.18 167.45 -41.38 165.94 C-42.8 165.28 -44.23 164.63 -45.65 163.97 C-46.37 163.64 -47.09 163.31 -47.84 162.97 C-49.91 162.04 -52.01 161.19 -54.13 160.37 C-54.77 160.12 -55.41 159.86 -56.07 159.6 C-57.85 158.91 -59.62 158.23 -61.4 157.55 C-64 156 -64 156 -65.05 153.74 C-64.98 150.14 -63.78 147.44 -62.25 144.25 C-61.6 142.83 -60.95 141.4 -60.3 139.98 C-59.93 139.19 -59.57 138.41 -59.19 137.6 C-56.9 132.61 -54.71 127.59 -52.5 122.56 C-52.02 121.48 -51.54 120.39 -51.05 119.27 C-48.18 112.75 -45.39 106.21 -42.71 99.62 C-39.53 91.79 -36.21 84.03 -32.91 76.26 C-30.49 70.57 -28.13 64.86 -25.85 59.11 C-24.85 56.64 -23.76 54.22 -22.62 51.81 C-20.62 47.47 -18.81 43.07 -17.06 38.62 C-14.77 32.81 -12.25 27.15 -9.59 21.49 C-7.34 16.54 -5.3 11.51 -3.27 6.47 C-1.1 1.1 -1.1 1.1 0 0 Z " fill="#FEFEFE" transform="translate(264,9)"/>
<path d="M0 0 C5.94 0.98 11.26 3.39 16.8 5.67 C18.69 6.44 20.58 7.2 22.47 7.96 C24.25 8.69 24.25 8.69 26.07 9.43 C27.16 9.88 28.25 10.32 29.37 10.78 C32 12 32 12 34 14 C33.8 17.3 32.59 20.01 31.24 22.97 C28.81 28.4 26.53 33.88 24.25 39.38 C23.36 41.52 22.47 43.67 21.57 45.81 C21.14 46.87 20.7 47.92 20.25 49 C14.91 61.83 9.48 74.61 4.06 87.4 C1.41 93.66 -1.24 99.92 -3.88 106.19 C-4.18 106.91 -4.48 107.63 -4.79 108.37 C-6.65 112.79 -8.51 117.21 -10.35 121.63 C-11.51 124.4 -12.66 127.16 -13.82 129.93 C-14.39 131.29 -14.96 132.65 -15.53 134.01 C-19.7 144.02 -23.9 154.01 -28.81 163.69 C-29.23 164.52 -29.65 165.35 -30.08 166.2 C-30.38 166.79 -30.69 167.39 -31 168 C-37.11 167.01 -42.62 164.42 -48.29 162.02 C-50.25 161.19 -52.23 160.38 -54.2 159.57 C-55.45 159.04 -56.7 158.51 -57.95 157.98 C-59.09 157.51 -60.23 157.03 -61.4 156.54 C-64 155 -64 155 -65.01 153.14 C-65 150.26 -64.14 148.36 -62.94 145.74 C-62.47 144.71 -62.01 143.68 -61.53 142.62 C-61.03 141.53 -60.52 140.44 -60 139.31 C-58.97 137.04 -57.95 134.76 -56.92 132.49 C-56.42 131.38 -55.92 130.26 -55.4 129.12 C-53.6 125.11 -51.9 121.07 -50.25 117 C-49.84 116 -49.84 116 -49.43 114.99 C-48.89 113.66 -48.35 112.34 -47.82 111.02 C-44.11 101.87 -40.4 92.75 -36.24 83.8 C-34.75 80.44 -33.4 77.04 -32.06 73.62 C-30.2 68.89 -28.23 64.24 -26.06 59.62 C-22.42 51.87 -19.22 43.94 -16 36 C-11.04 23.81 -5.98 11.74 0 0 Z " fill="#FEFEFE" transform="translate(527,612)"/>
<path d="M0 0 C2.14 12.37 4.2 24.41 4 37 C1.34 38.33 -1.08 38.47 -4.04 38.83 C-5.3 38.99 -6.57 39.15 -7.87 39.31 C-9.27 39.48 -10.67 39.64 -12.06 39.81 C-13.52 39.99 -14.97 40.17 -16.42 40.35 C-20.21 40.81 -24 41.27 -27.79 41.73 C-29.89 41.99 -31.99 42.24 -34.08 42.5 C-40.77 43.31 -47.46 44.12 -54.15 44.93 C-64.99 46.24 -75.83 47.56 -86.66 48.89 C-97.96 50.27 -109.25 51.64 -120.55 52.97 C-125.46 53.56 -130.37 54.18 -135.27 54.85 C-136.3 54.99 -137.34 55.13 -138.41 55.27 C-140.34 55.54 -142.28 55.81 -144.22 56.09 C-150.18 56.9 -155.98 57.15 -162 57 C-166.06 34.79 -166.06 34.79 -166.02 25.24 C-166.02 24.26 -166.01 23.27 -166.01 22.26 C-166.01 21.52 -166 20.77 -166 20 C-165.42 19.93 -164.84 19.86 -164.25 19.79 C-158.12 19.06 -151.98 18.33 -145.85 17.6 C-143.57 17.33 -141.3 17.06 -139.02 16.79 C-127.58 15.43 -116.14 14.05 -104.73 12.46 C-92.89 10.81 -81.02 9.46 -69.14 8.12 C-59.81 7.07 -50.5 5.99 -41.22 4.49 C-35.23 3.58 -29.21 2.87 -23.19 2.14 C-20.97 1.87 -18.75 1.6 -16.54 1.32 C-15.11 1.15 -13.68 0.98 -12.25 0.8 C-10.98 0.65 -9.7 0.49 -8.39 0.34 C-5.56 0.06 -2.84 -0.07 0 0 Z " fill="#FEFEFE" transform="translate(275,611)"/>
<path d="M0 0 C1.61 1.61 1.43 3.49 1.72 5.71 C1.85 6.68 1.97 7.66 2.1 8.66 C2.3 10.22 2.3 10.22 2.5 11.81 C2.63 12.86 2.77 13.9 2.9 14.98 C4.96 31.41 4.96 31.41 5 36 C3.23 37.77 0.65 37.53 -1.75 37.83 C-3 37.99 -4.26 38.15 -5.54 38.31 C-6.88 38.48 -8.22 38.65 -9.56 38.81 C-10.77 38.97 -11.97 39.12 -13.22 39.28 C-16.85 39.73 -20.49 40.19 -24.13 40.64 C-29.44 41.3 -34.74 41.97 -40.04 42.63 C-42.12 42.89 -44.19 43.15 -46.27 43.41 C-55.82 44.6 -65.38 45.8 -74.93 47 C-89.76 48.86 -104.6 50.71 -119.44 52.56 C-122.68 52.96 -125.91 53.36 -129.15 53.77 C-133.29 54.29 -137.43 54.8 -141.57 55.3 C-142.96 55.47 -144.36 55.65 -145.75 55.82 C-147.61 56.06 -149.47 56.28 -151.32 56.5 C-152.32 56.63 -153.31 56.75 -154.33 56.87 C-157.07 57 -159.34 56.66 -162 56 C-162.58 52 -163.15 48 -163.71 43.99 C-163.9 42.64 -164.1 41.28 -164.29 39.92 C-164.57 37.96 -164.85 35.99 -165.12 34.03 C-165.29 32.85 -165.46 31.67 -165.63 30.46 C-166.01 26.94 -166.06 23.53 -166 20 C-163.72 18.86 -162 18.67 -159.47 18.38 C-158.06 18.22 -158.06 18.22 -156.61 18.05 C-155.58 17.93 -154.55 17.82 -153.49 17.7 C-152.42 17.57 -151.35 17.45 -150.24 17.32 C-146.79 16.92 -143.33 16.52 -139.88 16.12 C-135.39 15.61 -130.91 15.09 -126.43 14.57 C-125.32 14.44 -124.2 14.31 -123.06 14.18 C-108.04 12.43 -93.05 10.54 -78.06 8.56 C-67.13 7.12 -56.18 5.8 -45.23 4.49 C-38.86 3.73 -32.49 2.94 -26.13 2.08 C-25.09 1.94 -24.06 1.8 -22.99 1.65 C-21.12 1.4 -19.25 1.13 -17.38 0.86 C-11.6 0.07 -5.83 -0.43 0 0 Z " fill="#FEFEFE" transform="translate(647,79)"/>
</svg>
